<svg xmlns="http://www.w3.org/2000/svg" xmlns:xlink="http://www.w3.org/1999/xlink" width="1057" zoomAndPan="magnify" viewBox="0 0 792.75 289.499996" height="386" preserveAspectRatio="xMidYMid meet" version="1.0"><defs><g/><clipPath id="23811f68fc"><path d="M 0.558594 76.851562 L 226.667969 76.851562 L 226.667969 227 L 0.558594 227 Z M 0.558594 76.851562 " clip-rule="nonzero"/></clipPath><clipPath id="ea23ed371e"><path d="M 413 52.5 L 431.824219 52.5 L 431.824219 71.328125 L 413 71.328125 Z M 413 52.5 " clip-rule="nonzero"/></clipPath><clipPath id="de4b25df76"><path d="M 422.414062 52.5 C 417.214844 52.5 413 56.714844 413 61.914062 C 413 67.113281 417.214844 71.328125 422.414062 71.328125 C 427.609375 71.328125 431.824219 67.113281 431.824219 61.914062 C 431.824219 56.714844 427.609375 52.5 422.414062 52.5 Z M 422.414062 52.5 " clip-rule="nonzero"/></clipPath><clipPath id="bbb490fa06"><path d="M 0 0.5 L 18.824219 0.5 L 18.824219 19.328125 L 0 19.328125 Z M 0 0.5 " clip-rule="nonzero"/></clipPath><clipPath id="b300d9d756"><path d="M 9.414062 0.5 C 4.214844 0.5 0 4.714844 0 9.914062 C 0 15.113281 4.214844 19.328125 9.414062 19.328125 C 14.609375 19.328125 18.824219 15.113281 18.824219 9.914062 C 18.824219 4.714844 14.609375 0.5 9.414062 0.5 Z M 9.414062 0.5 " clip-rule="nonzero"/></clipPath><clipPath id="b55c8bf912"><rect x="0" width="19" y="0" height="20"/></clipPath></defs><g clip-path="url(#23811f68fc)"><path fill="#5e17eb" d="M 166.410156 76.851562 C 186.375 118.585938 206.34375 160.320312 226.308594 202.058594 L 156.960938 202.058594 C 148.222656 183.742188 139.488281 165.425781 130.75 147.109375 L 113.449219 147.109375 C 99.222656 173.734375 85 200.363281 70.773438 226.992188 L 0.589844 226.992188 L 44.550781 142.152344 L 128.105469 142.152344 L 96.742188 76.851562 Z M 166.410156 76.851562 " fill-opacity="1" fill-rule="nonzero"/></g><g fill="#fafafa" fill-opacity="1"><g transform="translate(245.90413, 199.112465)"><g><path d="M 77.265625 -30.171875 L 28.828125 -30.171875 L 17.953125 0 L 2.21875 0 L 46.375 -115.625 L 59.71875 -115.625 L 103.953125 0 L 88.3125 0 Z M 33.4375 -42.71875 L 72.75 -42.71875 L 53.046875 -96.8125 Z M 33.4375 -42.71875 "/></g></g></g><g fill="#fafafa" fill-opacity="1"><g transform="translate(351.996861, 199.112465)"><g><path d="M 61.859375 -115.625 L 77.1875 -115.625 L 77.1875 -33.75 C 77.1875 -22.6875 73.863281 -14.03125 67.21875 -7.78125 C 60.570312 -1.53125 51.71875 1.59375 40.65625 1.59375 C 29.164062 1.59375 20.21875 -1.34375 13.8125 -7.21875 C 7.40625 -13.101562 4.203125 -21.335938 4.203125 -31.921875 L 19.453125 -31.921875 C 19.453125 -25.304688 21.265625 -20.144531 24.890625 -16.4375 C 28.523438 -12.726562 33.78125 -10.875 40.65625 -10.875 C 46.957031 -10.875 52.050781 -12.859375 55.9375 -16.828125 C 59.832031 -20.804688 61.804688 -26.367188 61.859375 -33.515625 Z M 61.859375 -115.625 "/></g></g></g><g fill="#fafafa" fill-opacity="1"><g transform="translate(441.730981, 199.112465)"><g><path d="M 77.265625 -30.171875 L 28.828125 -30.171875 L 17.953125 0 L 2.21875 0 L 46.375 -115.625 L 59.71875 -115.625 L 103.953125 0 L 88.3125 0 Z M 33.4375 -42.71875 L 72.75 -42.71875 L 53.046875 -96.8125 Z M 33.4375 -42.71875 "/></g></g></g><g fill="#fafafa" fill-opacity="1"><g transform="translate(547.823711, 199.112465)"><g><path d="M 51.140625 -71.3125 L 78.859375 -115.625 L 96.8125 -115.625 L 60.28125 -58.296875 L 97.671875 0 L 79.578125 0 L 51.140625 -45.109375 L 22.546875 0 L 4.53125 0 L 42.015625 -58.296875 L 5.40625 -115.625 L 23.265625 -115.625 Z M 51.140625 -71.3125 "/></g></g></g><g fill="#5e17eb" fill-opacity="1"><g transform="translate(664.48694, 159.805352)"><g><path d="M 19.796875 -8.546875 C 19.796875 -9.816406 19.347656 -10.789062 18.453125 -11.46875 C 17.566406 -12.144531 15.957031 -12.859375 13.625 -13.609375 C 11.300781 -14.367188 9.457031 -15.113281 8.09375 -15.84375 C 4.394531 -17.84375 2.546875 -20.535156 2.546875 -23.921875 C 2.546875 -25.679688 3.039062 -27.25 4.03125 -28.625 C 5.03125 -30.007812 6.457031 -31.085938 8.3125 -31.859375 C 10.164062 -32.640625 12.25 -33.03125 14.5625 -33.03125 C 16.894531 -33.03125 18.96875 -32.609375 20.78125 -31.765625 C 22.601562 -30.921875 24.019531 -29.726562 25.03125 -28.1875 C 26.039062 -26.65625 26.546875 -24.910156 26.546875 -22.953125 L 19.828125 -22.953125 C 19.828125 -24.453125 19.351562 -25.613281 18.40625 -26.4375 C 17.46875 -27.269531 16.148438 -27.6875 14.453125 -27.6875 C 12.816406 -27.6875 11.539062 -27.335938 10.625 -26.640625 C 9.71875 -25.941406 9.265625 -25.03125 9.265625 -23.90625 C 9.265625 -22.84375 9.796875 -21.953125 10.859375 -21.234375 C 11.929688 -20.515625 13.503906 -19.84375 15.578125 -19.21875 C 19.390625 -18.070312 22.171875 -16.644531 23.921875 -14.9375 C 25.671875 -13.238281 26.546875 -11.125 26.546875 -8.59375 C 26.546875 -5.769531 25.476562 -3.554688 23.34375 -1.953125 C 21.207031 -0.347656 18.332031 0.453125 14.71875 0.453125 C 12.21875 0.453125 9.9375 -0.00390625 7.875 -0.921875 C 5.8125 -1.847656 4.238281 -3.109375 3.15625 -4.703125 C 2.082031 -6.296875 1.546875 -8.144531 1.546875 -10.25 L 8.28125 -10.25 C 8.28125 -6.65625 10.425781 -4.859375 14.71875 -4.859375 C 16.320312 -4.859375 17.566406 -5.179688 18.453125 -5.828125 C 19.347656 -6.472656 19.796875 -7.378906 19.796875 -8.546875 Z M 19.796875 -8.546875 "/></g></g></g><g fill="#5e17eb" fill-opacity="1"><g transform="translate(692.656579, 159.805352)"><g><path d="M 16.515625 0 C 16.210938 -0.582031 15.992188 -1.304688 15.859375 -2.171875 C 14.296875 -0.421875 12.257812 0.453125 9.75 0.453125 C 7.382812 0.453125 5.421875 -0.234375 3.859375 -1.609375 C 2.296875 -2.984375 1.515625 -4.710938 1.515625 -6.796875 C 1.515625 -9.367188 2.46875 -11.335938 4.375 -12.703125 C 6.28125 -14.078125 9.03125 -14.773438 12.625 -14.796875 L 15.59375 -14.796875 L 15.59375 -16.171875 C 15.59375 -17.296875 15.304688 -18.191406 14.734375 -18.859375 C 14.160156 -19.535156 13.253906 -19.875 12.015625 -19.875 C 10.929688 -19.875 10.078125 -19.609375 9.453125 -19.078125 C 8.835938 -18.554688 8.53125 -17.84375 8.53125 -16.9375 L 2.0625 -16.9375 C 2.0625 -18.34375 2.492188 -19.640625 3.359375 -20.828125 C 4.222656 -22.023438 5.441406 -22.960938 7.015625 -23.640625 C 8.597656 -24.316406 10.378906 -24.65625 12.359375 -24.65625 C 15.335938 -24.65625 17.703125 -23.90625 19.453125 -22.40625 C 21.210938 -20.90625 22.09375 -18.800781 22.09375 -16.09375 L 22.09375 -5.59375 C 22.101562 -3.289062 22.421875 -1.550781 23.046875 -0.375 L 23.046875 0 Z M 11.171875 -4.5 C 12.117188 -4.5 12.992188 -4.707031 13.796875 -5.125 C 14.609375 -5.550781 15.207031 -6.125 15.59375 -6.84375 L 15.59375 -11.015625 L 13.1875 -11.015625 C 9.945312 -11.015625 8.222656 -9.894531 8.015625 -7.65625 L 7.984375 -7.265625 C 7.984375 -6.460938 8.265625 -5.800781 8.828125 -5.28125 C 9.398438 -4.757812 10.179688 -4.5 11.171875 -4.5 Z M 11.171875 -4.5 "/></g></g></g><g fill="#5e17eb" fill-opacity="1"><g transform="translate(717.2239, 159.805352)"><g><path d="M 9.3125 0 L 2.8125 0 L 2.8125 -34.375 L 9.3125 -34.375 Z M 9.3125 0 "/></g></g></g><g fill="#5e17eb" fill-opacity="1"><g transform="translate(729.373318, 159.805352)"><g><path d="M 13.625 0.453125 C 10.070312 0.453125 7.179688 -0.632812 4.953125 -2.8125 C 2.722656 -5 1.609375 -7.90625 1.609375 -11.53125 L 1.609375 -12.15625 C 1.609375 -14.582031 2.078125 -16.753906 3.015625 -18.671875 C 3.960938 -20.585938 5.296875 -22.0625 7.015625 -23.09375 C 8.734375 -24.132812 10.695312 -24.65625 12.90625 -24.65625 C 16.21875 -24.65625 18.820312 -23.609375 20.71875 -21.515625 C 22.625 -19.429688 23.578125 -16.472656 23.578125 -12.640625 L 23.578125 -10 L 8.171875 -10 C 8.378906 -8.414062 9.007812 -7.144531 10.0625 -6.1875 C 11.113281 -5.238281 12.441406 -4.765625 14.046875 -4.765625 C 16.546875 -4.765625 18.492188 -5.664062 19.890625 -7.46875 L 23.078125 -3.921875 C 22.097656 -2.546875 20.78125 -1.472656 19.125 -0.703125 C 17.476562 0.0664062 15.644531 0.453125 13.625 0.453125 Z M 12.890625 -19.421875 C 11.609375 -19.421875 10.566406 -18.988281 9.765625 -18.125 C 8.972656 -17.257812 8.460938 -16.019531 8.234375 -14.40625 L 17.234375 -14.40625 L 17.234375 -14.921875 C 17.203125 -16.359375 16.8125 -17.46875 16.0625 -18.25 C 15.320312 -19.03125 14.265625 -19.421875 12.890625 -19.421875 Z M 12.890625 -19.421875 "/></g></g></g><g fill="#5e17eb" fill-opacity="1"><g transform="translate(754.142016, 159.805352)"><g><path d="M 15.59375 -6.6875 C 15.59375 -7.476562 15.203125 -8.097656 14.421875 -8.546875 C 13.640625 -9.003906 12.382812 -9.414062 10.65625 -9.78125 C 4.894531 -10.988281 2.015625 -13.4375 2.015625 -17.125 C 2.015625 -19.269531 2.90625 -21.0625 4.6875 -22.5 C 6.46875 -23.9375 8.800781 -24.65625 11.6875 -24.65625 C 14.757812 -24.65625 17.210938 -23.929688 19.046875 -22.484375 C 20.890625 -21.035156 21.8125 -19.15625 21.8125 -16.84375 L 15.34375 -16.84375 C 15.34375 -17.769531 15.046875 -18.535156 14.453125 -19.140625 C 13.859375 -19.742188 12.925781 -20.046875 11.65625 -20.046875 C 10.570312 -20.046875 9.726562 -19.800781 9.125 -19.3125 C 8.53125 -18.820312 8.234375 -18.195312 8.234375 -17.4375 C 8.234375 -16.71875 8.570312 -16.132812 9.25 -15.6875 C 9.925781 -15.25 11.070312 -14.867188 12.6875 -14.546875 C 14.300781 -14.234375 15.660156 -13.875 16.765625 -13.46875 C 20.179688 -12.21875 21.890625 -10.046875 21.890625 -6.953125 C 21.890625 -4.742188 20.941406 -2.957031 19.046875 -1.59375 C 17.148438 -0.226562 14.703125 0.453125 11.703125 0.453125 C 9.671875 0.453125 7.867188 0.09375 6.296875 -0.625 C 4.722656 -1.351562 3.488281 -2.347656 2.59375 -3.609375 C 1.695312 -4.867188 1.25 -6.234375 1.25 -7.703125 L 7.390625 -7.703125 C 7.441406 -6.546875 7.863281 -5.660156 8.65625 -5.046875 C 9.445312 -4.441406 10.507812 -4.140625 11.84375 -4.140625 C 13.070312 -4.140625 14.003906 -4.375 14.640625 -4.84375 C 15.273438 -5.3125 15.59375 -5.925781 15.59375 -6.6875 Z M 15.59375 -6.6875 "/></g></g></g><g clip-path="url(#ea23ed371e)"><g clip-path="url(#de4b25df76)"><g transform="matrix(1, 0, 0, 1, 413, 52)"><g clip-path="url(#b55c8bf912)"><g clip-path="url(#bbb490fa06)"><g clip-path="url(#b300d9d756)"><path fill="#5e17eb" d="M 0 0.5 L 18.824219 0.5 L 18.824219 19.328125 L 0 19.328125 Z M 0 0.5 " fill-opacity="1" fill-rule="nonzero"/></g></g></g></g></g></g></svg>