<svg xmlns="http://www.w3.org/2000/svg" xmlns:xlink="http://www.w3.org/1999/xlink" width="1192" zoomAndPan="magnify" viewBox="0 0 894 289.499996" height="386" preserveAspectRatio="xMidYMid meet" version="1.0"><defs><g/><clipPath id="1b0b977a57"><path d="M 0.769531 76.851562 L 226.878906 76.851562 L 226.878906 227 L 0.769531 227 Z M 0.769531 76.851562 " clip-rule="nonzero"/></clipPath><clipPath id="6f27b69624"><rect x="0" width="200" y="0" height="95"/></clipPath><clipPath id="1dcfc78813"><path d="M 413.210938 52.5 L 432.039062 52.5 L 432.039062 71.328125 L 413.210938 71.328125 Z M 413.210938 52.5 " clip-rule="nonzero"/></clipPath><clipPath id="f7a53c47e1"><path d="M 422.625 52.5 C 417.425781 52.5 413.210938 56.714844 413.210938 61.914062 C 413.210938 67.113281 417.425781 71.328125 422.625 71.328125 C 427.824219 71.328125 432.039062 67.113281 432.039062 61.914062 C 432.039062 56.714844 427.824219 52.5 422.625 52.5 Z M 422.625 52.5 " clip-rule="nonzero"/></clipPath><clipPath id="67bbfed885"><path d="M 0.210938 0.5 L 19.039062 0.5 L 19.039062 19.328125 L 0.210938 19.328125 Z M 0.210938 0.5 " clip-rule="nonzero"/></clipPath><clipPath id="b3a6c566c6"><path d="M 9.625 0.5 C 4.425781 0.5 0.210938 4.714844 0.210938 9.914062 C 0.210938 15.113281 4.425781 19.328125 9.625 19.328125 C 14.824219 19.328125 19.039062 15.113281 19.039062 9.914062 C 19.039062 4.714844 14.824219 0.5 9.625 0.5 Z M 9.625 0.5 " clip-rule="nonzero"/></clipPath><clipPath id="83874d6a07"><rect x="0" width="20" y="0" height="20"/></clipPath></defs><g clip-path="url(#1b0b977a57)"><path fill="#fafafa" d="M 166.621094 76.851562 C 186.589844 118.585938 206.554688 160.320312 226.519531 202.058594 L 157.171875 202.058594 C 148.433594 183.742188 139.699219 165.425781 130.960938 147.109375 L 113.660156 147.109375 C 99.433594 173.734375 85.210938 200.363281 70.984375 226.992188 L 0.800781 226.992188 L 44.761719 142.152344 L 128.316406 142.152344 L 96.953125 76.851562 L 166.625 76.851562 Z M 166.621094 76.851562 " fill-opacity="1" fill-rule="nonzero"/></g><g fill="#fafafa" fill-opacity="1"><g transform="translate(246.1162, 199.112465)"><g><path d="M 77.265625 -30.171875 L 28.828125 -30.171875 L 17.953125 0 L 2.21875 0 L 46.375 -115.625 L 59.71875 -115.625 L 103.953125 0 L 88.3125 0 Z M 33.4375 -42.71875 L 72.75 -42.71875 L 53.046875 -96.8125 Z M 33.4375 -42.71875 "/></g></g></g><g fill="#fafafa" fill-opacity="1"><g transform="translate(352.20893, 199.112465)"><g><path d="M 61.859375 -115.625 L 77.1875 -115.625 L 77.1875 -33.75 C 77.1875 -22.6875 73.863281 -14.03125 67.21875 -7.78125 C 60.570312 -1.53125 51.71875 1.59375 40.65625 1.59375 C 29.164062 1.59375 20.21875 -1.34375 13.8125 -7.21875 C 7.40625 -13.101562 4.203125 -21.335938 4.203125 -31.921875 L 19.453125 -31.921875 C 19.453125 -25.304688 21.265625 -20.144531 24.890625 -16.4375 C 28.523438 -12.726562 33.78125 -10.875 40.65625 -10.875 C 46.957031 -10.875 52.050781 -12.859375 55.9375 -16.828125 C 59.832031 -20.804688 61.804688 -26.367188 61.859375 -33.515625 Z M 61.859375 -115.625 "/></g></g></g><g fill="#fafafa" fill-opacity="1"><g transform="translate(441.943051, 199.112465)"><g><path d="M 77.265625 -30.171875 L 28.828125 -30.171875 L 17.953125 0 L 2.21875 0 L 46.375 -115.625 L 59.71875 -115.625 L 103.953125 0 L 88.3125 0 Z M 33.4375 -42.71875 L 72.75 -42.71875 L 53.046875 -96.8125 Z M 33.4375 -42.71875 "/></g></g></g><g fill="#fafafa" fill-opacity="1"><g transform="translate(548.035781, 199.112465)"><g><path d="M 51.140625 -71.3125 L 78.859375 -115.625 L 96.8125 -115.625 L 60.28125 -58.296875 L 97.671875 0 L 79.578125 0 L 51.140625 -45.109375 L 22.546875 0 L 4.53125 0 L 42.015625 -58.296875 L 5.40625 -115.625 L 23.265625 -115.625 Z M 51.140625 -71.3125 "/></g></g></g><g transform="matrix(1, 0, 0, 1, 670, 91)"><g clip-path="url(#6f27b69624)"><g fill="#fafafa" fill-opacity="1"><g transform="translate(1.145541, 74.707312)"><g><path d="M 34.484375 -14.890625 C 34.484375 -17.097656 33.703125 -18.789062 32.140625 -19.96875 C 30.585938 -21.144531 27.785156 -22.390625 23.734375 -23.703125 C 19.679688 -25.015625 16.472656 -26.3125 14.109375 -27.59375 C 7.660156 -31.070312 4.4375 -35.757812 4.4375 -41.65625 C 4.4375 -44.71875 5.300781 -47.445312 7.03125 -49.84375 C 8.757812 -52.25 11.238281 -54.128906 14.46875 -55.484375 C 17.707031 -56.835938 21.335938 -57.515625 25.359375 -57.515625 C 29.410156 -57.515625 33.019531 -56.78125 36.1875 -55.3125 C 39.363281 -53.84375 41.828125 -51.769531 43.578125 -49.09375 C 45.328125 -46.414062 46.203125 -43.375 46.203125 -39.96875 L 34.515625 -39.96875 C 34.515625 -42.570312 33.695312 -44.59375 32.0625 -46.03125 C 30.425781 -47.476562 28.128906 -48.203125 25.171875 -48.203125 C 22.316406 -48.203125 20.09375 -47.597656 18.5 -46.390625 C 16.914062 -45.179688 16.125 -43.585938 16.125 -41.609375 C 16.125 -39.765625 17.050781 -38.21875 18.90625 -36.96875 C 20.769531 -35.726562 23.507812 -34.5625 27.125 -33.46875 C 33.769531 -31.46875 38.609375 -28.984375 41.640625 -26.015625 C 44.679688 -23.054688 46.203125 -19.375 46.203125 -14.96875 C 46.203125 -10.050781 44.34375 -6.195312 40.625 -3.40625 C 36.914062 -0.613281 31.921875 0.78125 25.640625 0.78125 C 21.273438 0.78125 17.300781 -0.015625 13.71875 -1.609375 C 10.132812 -3.210938 7.398438 -5.398438 5.515625 -8.171875 C 3.628906 -10.953125 2.6875 -14.175781 2.6875 -17.84375 L 14.421875 -17.84375 C 14.421875 -11.582031 18.160156 -8.453125 25.640625 -8.453125 C 28.421875 -8.453125 30.585938 -9.015625 32.140625 -10.140625 C 33.703125 -11.273438 34.484375 -12.859375 34.484375 -14.890625 Z M 34.484375 -14.890625 "/></g></g></g><g fill="#fafafa" fill-opacity="1"><g transform="translate(50.191248, 74.707312)"><g><path d="M 28.75 0 C 28.226562 -1.007812 27.851562 -2.269531 27.625 -3.78125 C 24.894531 -0.738281 21.347656 0.78125 16.984375 0.78125 C 12.859375 0.78125 9.4375 -0.410156 6.71875 -2.796875 C 4.007812 -5.191406 2.65625 -8.207031 2.65625 -11.84375 C 2.65625 -16.3125 4.304688 -19.738281 7.609375 -22.125 C 10.921875 -24.519531 15.707031 -25.726562 21.96875 -25.75 L 27.15625 -25.75 L 27.15625 -28.171875 C 27.15625 -30.117188 26.65625 -31.675781 25.65625 -32.84375 C 24.65625 -34.007812 23.078125 -34.59375 20.921875 -34.59375 C 19.023438 -34.59375 17.535156 -34.140625 16.453125 -33.234375 C 15.378906 -32.328125 14.84375 -31.082031 14.84375 -29.5 L 3.578125 -29.5 C 3.578125 -31.9375 4.332031 -34.191406 5.84375 -36.265625 C 7.351562 -38.347656 9.484375 -39.976562 12.234375 -41.15625 C 14.984375 -42.34375 18.070312 -42.9375 21.5 -42.9375 C 26.695312 -42.9375 30.820312 -41.628906 33.875 -39.015625 C 36.925781 -36.410156 38.453125 -32.742188 38.453125 -28.015625 L 38.453125 -9.734375 C 38.484375 -5.734375 39.039062 -2.707031 40.125 -0.65625 L 40.125 0 Z M 19.4375 -7.828125 C 21.101562 -7.828125 22.632812 -8.195312 24.03125 -8.9375 C 25.4375 -9.675781 26.476562 -10.671875 27.15625 -11.921875 L 27.15625 -19.171875 L 22.953125 -19.171875 C 17.316406 -19.171875 14.316406 -17.222656 13.953125 -13.328125 L 13.90625 -12.65625 C 13.90625 -11.257812 14.398438 -10.101562 15.390625 -9.1875 C 16.378906 -8.28125 17.726562 -7.828125 19.4375 -7.828125 Z M 19.4375 -7.828125 "/></g></g></g><g fill="#fafafa" fill-opacity="1"><g transform="translate(92.965018, 74.707312)"><g><path d="M 16.203125 0 L 4.90625 0 L 4.90625 -59.84375 L 16.203125 -59.84375 Z M 16.203125 0 "/></g></g></g><g fill="#fafafa" fill-opacity="1"><g transform="translate(114.118176, 74.707312)"><g><path d="M 23.734375 0.78125 C 17.546875 0.78125 12.507812 -1.113281 8.625 -4.90625 C 4.75 -8.695312 2.8125 -13.75 2.8125 -20.0625 L 2.8125 -21.15625 C 2.8125 -25.394531 3.628906 -29.179688 5.265625 -32.515625 C 6.898438 -35.847656 9.21875 -38.414062 12.21875 -40.21875 C 15.21875 -42.03125 18.640625 -42.9375 22.484375 -42.9375 C 28.242188 -42.9375 32.78125 -41.117188 36.09375 -37.484375 C 39.40625 -33.847656 41.0625 -28.691406 41.0625 -22.015625 L 41.0625 -17.421875 L 14.21875 -17.421875 C 14.582031 -14.660156 15.679688 -12.445312 17.515625 -10.78125 C 19.347656 -9.125 21.664062 -8.296875 24.46875 -8.296875 C 28.800781 -8.296875 32.191406 -9.867188 34.640625 -13.015625 L 40.171875 -6.8125 C 38.484375 -4.425781 36.195312 -2.5625 33.3125 -1.21875 C 30.425781 0.113281 27.234375 0.78125 23.734375 0.78125 Z M 22.4375 -33.8125 C 20.207031 -33.8125 18.394531 -33.054688 17 -31.546875 C 15.613281 -30.046875 14.726562 -27.894531 14.34375 -25.09375 L 30 -25.09375 L 30 -25.984375 C 29.945312 -28.484375 29.269531 -30.410156 27.96875 -31.765625 C 26.675781 -33.128906 24.832031 -33.8125 22.4375 -33.8125 Z M 22.4375 -33.8125 "/></g></g></g><g fill="#fafafa" fill-opacity="1"><g transform="translate(157.242559, 74.707312)"><g><path d="M 27.15625 -11.65625 C 27.15625 -13.03125 26.472656 -14.113281 25.109375 -14.90625 C 23.742188 -15.695312 21.554688 -16.40625 18.546875 -17.03125 C 8.515625 -19.132812 3.5 -23.394531 3.5 -29.8125 C 3.5 -33.550781 5.050781 -36.671875 8.15625 -39.171875 C 11.257812 -41.679688 15.320312 -42.9375 20.34375 -42.9375 C 25.6875 -42.9375 29.960938 -41.675781 33.171875 -39.15625 C 36.378906 -36.632812 37.984375 -33.363281 37.984375 -29.34375 L 26.734375 -29.34375 C 26.734375 -30.945312 26.210938 -32.273438 25.171875 -33.328125 C 24.128906 -34.378906 22.503906 -34.90625 20.296875 -34.90625 C 18.398438 -34.90625 16.929688 -34.476562 15.890625 -33.625 C 14.859375 -32.769531 14.34375 -31.679688 14.34375 -30.359375 C 14.34375 -29.109375 14.929688 -28.097656 16.109375 -27.328125 C 17.296875 -26.566406 19.289062 -25.90625 22.09375 -25.34375 C 24.894531 -24.789062 27.257812 -24.160156 29.1875 -23.453125 C 35.132812 -21.273438 38.109375 -17.5 38.109375 -12.125 C 38.109375 -8.269531 36.457031 -5.15625 33.15625 -2.78125 C 29.851562 -0.40625 25.59375 0.78125 20.375 0.78125 C 16.84375 0.78125 13.707031 0.148438 10.96875 -1.109375 C 8.226562 -2.367188 6.078125 -4.09375 4.515625 -6.28125 C 2.960938 -8.476562 2.1875 -10.851562 2.1875 -13.40625 L 12.859375 -13.40625 C 12.960938 -11.40625 13.703125 -9.867188 15.078125 -8.796875 C 16.453125 -7.734375 18.296875 -7.203125 20.609375 -7.203125 C 22.765625 -7.203125 24.394531 -7.609375 25.5 -8.421875 C 26.601562 -9.242188 27.15625 -10.320312 27.15625 -11.65625 Z M 27.15625 -11.65625 "/></g></g></g></g></g><g clip-path="url(#1dcfc78813)"><g clip-path="url(#f7a53c47e1)"><g transform="matrix(1, 0, 0, 1, 413, 52)"><g clip-path="url(#83874d6a07)"><g clip-path="url(#67bbfed885)"><g clip-path="url(#b3a6c566c6)"><path fill="#ffffff" d="M 0.210938 0.5 L 19.039062 0.5 L 19.039062 19.328125 L 0.210938 19.328125 Z M 0.210938 0.5 " fill-opacity="1" fill-rule="nonzero"/></g></g></g></g></g></g></svg>